<svg width="37" height="47" viewBox="0 0 37 47" fill="none" xmlns="http://www.w3.org/2000/svg">
<path d="M3.14062 14.4375C3.04688 14.1562 2.85938 13.8438 2.57812 13.5C2.42188 13.2812 2.14062 12.9531 1.73438 12.5156C1.07812 11.8594 0.65625 11.3594 0.46875 11.0156C0.15625 10.4531 0.140625 9.95313 0.421875 9.51562C0.859375 9.04688 1.5 8.8125 2.34375 8.8125C3.125 8.8125 3.9375 9 4.78125 9.375C5.65625 9.78125 6.39062 10.3281 6.98438 11.0156C7.60938 11.7344 7.98438 12.5469 8.10938 13.4531C8.73438 13.3594 9.26562 13.2188 9.70312 13.0312C9.95312 12.9375 10.2344 12.7969 10.5469 12.6094C10.8594 12.3906 11.125 12.25 11.3438 12.1875C11.6875 12.0938 12.1875 12.0625 12.8438 12.0938C13.6562 12.2188 14.3438 12.625 14.9062 13.3125C15.5 14.0625 15.4688 14.7812 14.8125 15.4688C14.3125 15.7812 13.4844 16.0312 12.3281 16.2188C11.4844 16.375 10.1875 16.5469 8.4375 16.7344L8.76562 21.4219C9.82812 21.4219 11.2031 21.2344 12.8906 20.8594C14.1094 20.5781 15.3906 20.2344 16.7344 19.8281L16.5938 17.7656L16.0781 10.9219C16.0156 10.3281 15.8438 9.71875 15.5625 9.09375C15.4062 8.71875 15.1562 8.21875 14.8125 7.59375C14.375 6.875 14.125 6.35937 14.0625 6.04688C13.9688 5.57812 14.1562 5.1875 14.625 4.875C15.3125 4.34375 16.3906 4.45312 17.8594 5.20312C19.2344 5.89062 20.2812 6.71875 21 7.6875C21.3125 8.25 21.4688 8.76562 21.4688 9.23438C21.4688 9.54687 21.3438 10.1094 21.0938 10.9219L21.0469 11.2031C21.1094 13.4531 21.0156 15.2656 20.7656 16.6406C20.6406 17.4219 20.4062 18.2188 20.0625 19.0312L19.7344 20.0625C20.5781 21.5 20.7031 22.5156 20.1094 23.1094C19.6094 23.5781 18.5469 23.8125 16.9219 23.8125L14.3906 24.2344C13.1094 24.5156 12.1875 24.6562 11.625 24.6562C10.7812 24.6875 9.79688 24.5625 8.67188 24.2812C8.04688 25.5625 7.4375 26.2969 6.84375 26.4844C6.09375 26.6719 5.5 25.8594 5.0625 24.0469C4.8125 22.9219 4.5625 21.75 4.3125 20.5312C4.1875 19.7812 4 18.7344 3.75 17.3906L3.32812 14.8594L3.14062 14.4375ZM28.875 7.26562C28.8125 6.45312 28.3906 5.5625 27.6094 4.59375C27.0781 3.90625 26.4062 3.20313 25.5938 2.48438C24.6562 1.70313 24.2031 1.14063 24.2344 0.796875C24.2656 0.390625 24.875 0.15625 26.0625 0.09375C26.8125 0.03125 27.7344 0.203125 28.8281 0.609375C30.0781 1.10937 31.4844 1.90625 33.0469 3C33.7344 3.4375 34.1562 3.875 34.3125 4.3125C34.4062 4.59375 34.4062 5.03125 34.3125 5.625L34.2188 6.79688V13.5C34.2188 16.5312 33.9531 19.0781 33.4219 21.1406C33.1094 22.3594 32.5625 23.7812 31.7812 25.4062L31.5469 25.9688C30.9219 27.3125 30.5 27.9688 30.2812 27.9375C30.0625 27.9062 30.0938 27.2188 30.375 25.875C30.4688 25.3125 30.4688 24.7188 30.375 24.0938C30.3125 23.6875 30.1562 23.0469 29.9062 22.1719C29.5938 21.0156 29.375 20.0469 29.25 19.2656C29.0312 17.9219 28.9219 16.4844 28.9219 14.9531L28.875 7.26562ZM25.125 26.3906C26.5 26.2656 27.4375 26.3438 27.9375 26.625C28.4062 26.9062 28.6562 27.4688 28.6875 28.3125C28.6875 29.0938 28.3281 29.7188 27.6094 30.1875C26.9219 30.6562 26 30.8906 24.8438 30.8906C23.1875 30.8906 21.8594 30.6562 20.8594 30.1875C19.9219 29.75 19 28.9531 18.0938 27.7969C17.4062 26.9219 17.25 26.3125 17.625 25.9688C18 25.6562 18.6875 25.6562 19.6875 25.9688C20.3125 26.1562 20.9844 26.2812 21.7031 26.3438C22.1719 26.375 22.9531 26.3906 24.0469 26.3906H24.9375H25.125ZM22.875 35.4375C21.8125 35.5625 20.875 35.7344 20.0625 35.9531C19.5938 36.0781 19.0469 36.2656 18.4219 36.5156C17.7344 36.7656 17.2188 36.875 16.875 36.8438C16.4375 36.7812 15.7344 36.5 14.7656 36C12.6719 34.75 11.5312 33.75 11.3438 33C11.1562 32.3438 11.6875 32.0469 12.9375 32.1094L14.3438 32.2031C16.0312 32.3281 17.4219 32.3906 18.5156 32.3906C20.2656 32.3906 22.5469 32.25 25.3594 31.9688C26.1719 31.875 26.875 31.7188 27.4688 31.5C27.8438 31.3438 28.2812 31.125 28.7812 30.8438C29.375 30.5312 29.8594 30.3281 30.2344 30.2344C30.8281 30.1094 31.625 30.1406 32.625 30.3281C33.9375 30.6719 34.7188 31.2031 34.9688 31.9219C35.125 32.3906 35.0312 33 34.6875 33.75C34.3438 34.2812 33.8906 34.6094 33.3281 34.7344C32.9531 34.8281 32.1875 34.8594 31.0312 34.8281C30.125 34.8281 29.3906 34.8281 28.8281 34.8281C27.8281 34.8594 26.8281 34.9531 25.8281 35.1094C27.0781 35.9531 27.75 36.6562 27.8438 37.2188C27.9062 37.625 27.6406 38.1562 27.0469 38.8125C27.8594 39 28.6719 39.1562 29.4844 39.2812C29.9531 39.375 30.5625 39.4688 31.3125 39.5625C32.4062 39.6875 33.1562 39.8281 33.5625 39.9844C34.1562 40.2344 34.7031 40.7188 35.2031 41.4375C35.7969 42.5625 35.8906 43.5938 35.4844 44.5312C35.1406 45.375 34.6094 45.8125 33.8906 45.8438C33.3594 45.9062 32.8281 45.7812 32.2969 45.4688C31.9219 45.2812 31.2031 44.75 30.1406 43.875C29.3281 43.25 28.6719 42.75 28.1719 42.375C27.2656 41.6875 26.3438 41.0156 25.4062 40.3594C22.4375 42.2344 19.8906 43.625 17.7656 44.5312C15.3906 45.5312 13.0625 46.1406 10.7812 46.3594C10.0938 46.3906 9.48438 46.3438 8.95312 46.2188C8.48438 46.125 8.21875 45.9844 8.15625 45.7969C8.0625 45.6094 8.23438 45.4844 8.67188 45.4219C9.17188 45.2969 9.92188 45.2969 10.9219 45.4219C11.3281 45.5156 12.2344 45.1094 13.6406 44.2031C14.9219 43.3906 16.3438 42.3438 17.9062 41.0625C19.4375 39.7812 20.6719 38.6406 21.6094 37.6406C22.6406 36.5156 23.0469 35.8594 22.8281 35.6719L22.875 35.4375Z" fill="#DC2626"/>
</svg>
